<?xml version="1.0" encoding="UTF-8"?>
<svg version="1.1" xmlns="http://www.w3.org/2000/svg" width="512" height="512">
<path d="M0 0 C1.08574568 -0.00382555 2.17149136 -0.00765109 3.29013842 -0.01159257 C6.89934251 -0.02184556 10.50838521 -0.01794509 14.11759949 -0.01396179 C16.71716457 -0.01831254 19.31672837 -0.02349689 21.91629028 -0.02944946 C28.22746192 -0.04215342 34.53859093 -0.04399553 40.84977321 -0.0416492 C45.9838348 -0.03986095 51.11788353 -0.04162651 56.25194359 -0.04587364 C56.98465717 -0.04646883 57.71737075 -0.04706402 58.47228777 -0.04767724 C59.96115266 -0.04888909 61.45001755 -0.05010322 62.93888243 -0.05131962 C76.87989916 -0.0621787 90.82089166 -0.06004048 104.76190975 -0.05393478 C117.4908402 -0.04876778 130.21969408 -0.06001823 142.94860939 -0.07903299 C156.04587619 -0.0984467 169.14310683 -0.10666117 182.2403881 -0.10290974 C189.58258472 -0.10100296 196.9247162 -0.10343398 204.26690102 -0.11762428 C211.17397087 -0.13083949 218.08088554 -0.12823025 224.98795509 -0.11521339 C227.51541191 -0.11285452 230.04287959 -0.11555744 232.57032394 -0.12383652 C252.00057442 -0.18286876 270.83740252 -0.22990614 285.67301941 14.26069641 C295.65087216 25.70436774 298.9813655 37.55178144 298.94044495 52.45521545 C298.94497606 53.67048267 298.94950717 54.88574988 298.95417559 56.13784337 C298.9646143 59.49434155 298.96615086 62.85062474 298.96378684 66.20712376 C298.96337745 69.83371056 298.97442945 73.4602658 298.98390198 77.08683777 C299.00048656 84.18582255 299.00601037 91.2847741 299.00712673 98.38377663 C299.00807842 104.15675259 299.01219475 109.92971762 299.01852798 115.70269012 C299.03613353 132.08522599 299.04536794 148.4677357 299.04386704 164.85028109 C299.04378712 165.73272986 299.04370721 166.61517864 299.04362488 167.52436829 C299.04354312 168.40789975 299.04346136 169.29143122 299.04337712 170.20173636 C299.04256443 184.51652232 299.06169948 198.831203 299.08990161 213.14595851 C299.1186588 227.85903868 299.13244034 242.57206755 299.13071406 257.28517652 C299.13005113 265.53952053 299.13550066 273.79375418 299.15707016 282.04807281 C299.17531932 289.0765586 299.17959875 296.10488398 299.16605131 303.13338324 C299.15954038 306.71570915 299.1593359 310.29772767 299.17675781 313.88002396 C299.19549458 317.77290423 299.18288505 321.66534041 299.16749573 325.5582428 C299.17778285 326.67733433 299.18806998 327.79642587 299.19866884 328.94942927 C299.08403815 342.12308255 294.47399012 353.71423468 285.64176941 363.51460266 C274.35164832 374.2933958 261.48289822 377.57725289 246.33857727 377.52139282 C245.22792243 377.52521837 244.11726759 377.52904392 242.97295654 377.53298539 C239.26762275 377.54326803 235.56244529 377.5393322 231.85710144 377.53535461 C229.19384756 377.5397037 226.53060496 377.5448234 223.86735535 377.55084229 C217.39381973 377.56356314 210.92032564 377.56538625 204.44677962 377.56304202 C199.18249576 377.56125578 193.91822447 377.56301505 188.65394211 377.56726646 C187.52818776 377.56815925 187.52818776 377.56815925 186.37969091 377.56907007 C184.85482376 377.57028187 183.32995661 377.57149601 181.80508946 377.57271244 C167.51890212 377.5835779 153.23273842 377.5814302 138.94654976 377.5753276 C125.89213991 377.57015924 112.8378047 377.5814135 99.78340961 377.60042582 C86.36190723 377.61982214 72.94044012 377.62805708 59.51892364 377.62430257 C51.99067533 377.62239325 44.46249053 377.62485172 36.93425369 377.63901711 C30.5253796 377.65095477 24.11660814 377.65230914 17.70773257 377.64022694 C14.4415005 377.63435491 11.17549377 377.63483238 7.90926743 377.64522934 C4.35981545 377.65571104 0.81086314 377.64758405 -2.73857117 377.63491821 C-3.75872877 377.6422925 -4.77888637 377.64966678 -5.82995784 377.65726453 C-20.11301769 377.55047083 -32.60822632 372.68178929 -42.99885559 362.84663391 C-52.73432867 352.03307153 -55.79065846 340.01399642 -55.71466064 325.83239746 C-55.72004618 324.61612696 -55.72543172 323.39985647 -55.73098046 322.14672929 C-55.74275215 318.79657768 -55.74121719 315.44692781 -55.73381364 312.09679687 C-55.72906314 308.47362685 -55.74160846 304.85050899 -55.75183105 301.22735596 C-55.76898834 294.13898531 -55.76986537 287.05070344 -55.76461815 279.96231743 C-55.76056906 274.19749807 -55.76202877 268.43270485 -55.76736641 262.66788673 C-55.76811483 261.84593738 -55.76886325 261.02398803 -55.76963435 260.17713112 C-55.77116591 258.50707496 -55.77270426 256.83701881 -55.77424932 255.16696266 C-55.78796355 239.52060182 -55.78254452 223.87429104 -55.77106411 208.22793136 C-55.76113544 193.93334311 -55.77406796 179.63888437 -55.7979983 165.34431609 C-55.82241825 150.64585198 -55.8319899 135.94744811 -55.82534558 121.24896413 C-55.82185945 113.00524429 -55.82404508 104.76162398 -55.8415966 96.51791954 C-55.85635497 89.49938361 -55.85690689 82.48101729 -55.83952569 75.46248456 C-55.83104258 71.88610276 -55.82879948 68.31002346 -55.84417725 64.73365784 C-55.8606873 60.84560106 -55.84581006 56.95800554 -55.82818604 53.06994629 C-55.83779104 51.95513183 -55.84739605 50.84031738 -55.85729212 49.69172066 C-55.73459606 36.4677363 -51.77257297 25.36737519 -42.88948059 15.57319641 C-42.04385559 14.81007141 -41.19823059 14.04694641 -40.32698059 13.26069641 C-39.8384259 12.7798761 -39.34987122 12.29905579 -38.84651184 11.80366516 C-28.05846709 1.68186545 -14.21507592 -0.05408023 0 0 Z " fill="#F3F3F3" transform="translate(134.3269805908203,67.73930358886719)"/>
<path d="M0 0 C1.08574568 -0.00382555 2.17149136 -0.00765109 3.29013842 -0.01159257 C6.89934251 -0.02184556 10.50838521 -0.01794509 14.11759949 -0.01396179 C16.71716457 -0.01831254 19.31672837 -0.02349689 21.91629028 -0.02944946 C28.22746192 -0.04215342 34.53859093 -0.04399553 40.84977321 -0.0416492 C45.9838348 -0.03986095 51.11788353 -0.04162651 56.25194359 -0.04587364 C56.98465717 -0.04646883 57.71737075 -0.04706402 58.47228777 -0.04767724 C59.96115266 -0.04888909 61.45001755 -0.05010322 62.93888243 -0.05131962 C76.87989916 -0.0621787 90.82089166 -0.06004048 104.76190975 -0.05393478 C117.4908402 -0.04876778 130.21969408 -0.06001823 142.94860939 -0.07903299 C156.04587619 -0.0984467 169.14310683 -0.10666117 182.2403881 -0.10290974 C189.58258472 -0.10100296 196.9247162 -0.10343398 204.26690102 -0.11762428 C211.17397087 -0.13083949 218.08088554 -0.12823025 224.98795509 -0.11521339 C227.51541191 -0.11285452 230.04287959 -0.11555744 232.57032394 -0.12383652 C252.00057442 -0.18286876 270.83740252 -0.22990614 285.67301941 14.26069641 C295.65087216 25.70436774 298.9813655 37.55178144 298.94044495 52.45521545 C298.94497606 53.67048267 298.94950717 54.88574988 298.95417559 56.13784337 C298.9646143 59.49434155 298.96615086 62.85062474 298.96378684 66.20712376 C298.96337745 69.83371056 298.97442945 73.4602658 298.98390198 77.08683777 C299.00048656 84.18582255 299.00601037 91.2847741 299.00712673 98.38377663 C299.00807842 104.15675259 299.01219475 109.92971762 299.01852798 115.70269012 C299.03613353 132.08522599 299.04536794 148.4677357 299.04386704 164.85028109 C299.04378712 165.73272986 299.04370721 166.61517864 299.04362488 167.52436829 C299.04354312 168.40789975 299.04346136 169.29143122 299.04337712 170.20173636 C299.04256443 184.51652232 299.06169948 198.831203 299.08990161 213.14595851 C299.1186588 227.85903868 299.13244034 242.57206755 299.13071406 257.28517652 C299.13005113 265.53952053 299.13550066 273.79375418 299.15707016 282.04807281 C299.17531932 289.0765586 299.17959875 296.10488398 299.16605131 303.13338324 C299.15954038 306.71570915 299.1593359 310.29772767 299.17675781 313.88002396 C299.19549458 317.77290423 299.18288505 321.66534041 299.16749573 325.5582428 C299.17778285 326.67733433 299.18806998 327.79642587 299.19866884 328.94942927 C299.08403815 342.12308255 294.47399012 353.71423468 285.64176941 363.51460266 C274.35164832 374.2933958 261.48289822 377.57725289 246.33857727 377.52139282 C245.22792243 377.52521837 244.11726759 377.52904392 242.97295654 377.53298539 C239.26762275 377.54326803 235.56244529 377.5393322 231.85710144 377.53535461 C229.19384756 377.5397037 226.53060496 377.5448234 223.86735535 377.55084229 C217.39381973 377.56356314 210.92032564 377.56538625 204.44677962 377.56304202 C199.18249576 377.56125578 193.91822447 377.56301505 188.65394211 377.56726646 C187.52818776 377.56815925 187.52818776 377.56815925 186.37969091 377.56907007 C184.85482376 377.57028187 183.32995661 377.57149601 181.80508946 377.57271244 C167.51890212 377.5835779 153.23273842 377.5814302 138.94654976 377.5753276 C125.89213991 377.57015924 112.8378047 377.5814135 99.78340961 377.60042582 C86.36190723 377.61982214 72.94044012 377.62805708 59.51892364 377.62430257 C51.99067533 377.62239325 44.46249053 377.62485172 36.93425369 377.63901711 C30.5253796 377.65095477 24.11660814 377.65230914 17.70773257 377.64022694 C14.4415005 377.63435491 11.17549377 377.63483238 7.90926743 377.64522934 C4.35981545 377.65571104 0.81086314 377.64758405 -2.73857117 377.63491821 C-3.75872877 377.6422925 -4.77888637 377.64966678 -5.82995784 377.65726453 C-20.11301769 377.55047083 -32.60822632 372.68178929 -42.99885559 362.84663391 C-52.73432867 352.03307153 -55.79065846 340.01399642 -55.71466064 325.83239746 C-55.72004618 324.61612696 -55.72543172 323.39985647 -55.73098046 322.14672929 C-55.74275215 318.79657768 -55.74121719 315.44692781 -55.73381364 312.09679687 C-55.72906314 308.47362685 -55.74160846 304.85050899 -55.75183105 301.22735596 C-55.76898834 294.13898531 -55.76986537 287.05070344 -55.76461815 279.96231743 C-55.76056906 274.19749807 -55.76202877 268.43270485 -55.76736641 262.66788673 C-55.76811483 261.84593738 -55.76886325 261.02398803 -55.76963435 260.17713112 C-55.77116591 258.50707496 -55.77270426 256.83701881 -55.77424932 255.16696266 C-55.78796355 239.52060182 -55.78254452 223.87429104 -55.77106411 208.22793136 C-55.76113544 193.93334311 -55.77406796 179.63888437 -55.7979983 165.34431609 C-55.82241825 150.64585198 -55.8319899 135.94744811 -55.82534558 121.24896413 C-55.82185945 113.00524429 -55.82404508 104.76162398 -55.8415966 96.51791954 C-55.85635497 89.49938361 -55.85690689 82.48101729 -55.83952569 75.46248456 C-55.83104258 71.88610276 -55.82879948 68.31002346 -55.84417725 64.73365784 C-55.8606873 60.84560106 -55.84581006 56.95800554 -55.82818604 53.06994629 C-55.83779104 51.95513183 -55.84739605 50.84031738 -55.85729212 49.69172066 C-55.73459606 36.4677363 -51.77257297 25.36737519 -42.88948059 15.57319641 C-42.04385559 14.81007141 -41.19823059 14.04694641 -40.32698059 13.26069641 C-39.8384259 12.7798761 -39.34987122 12.29905579 -38.84651184 11.80366516 C-28.05846709 1.68186545 -14.21507592 -0.05408023 0 0 Z M-26.82698059 34.19819641 C-31.63361218 41.00293358 -31.61534173 47.82536146 -31.587677 55.85525513 C-31.59150255 57.03009466 -31.5953281 58.2049342 -31.59926957 59.41537493 C-31.60779398 62.66814342 -31.60736925 65.92076744 -31.60308897 69.17353976 C-31.60062066 72.68489876 -31.60963729 76.19623128 -31.61712646 79.70758057 C-31.62987311 86.58391871 -31.63166716 93.4602178 -31.6293262 100.33656577 C-31.62754264 105.92702531 -31.6292935 111.51747301 -31.63355064 117.10793114 C-31.63414583 117.90382373 -31.63474102 118.69971632 -31.63535425 119.51972687 C-31.63656601 121.13664209 -31.63778015 122.7535573 -31.63899662 124.37047251 C-31.64987228 139.53311489 -31.6477097 154.69573504 -31.64161178 169.85837867 C-31.63644408 183.72264445 -31.64769413 197.58683993 -31.66671 211.4510918 C-31.68609363 225.69287815 -31.69434338 239.93463126 -31.69058675 254.17643088 C-31.68867531 262.16967468 -31.69115655 270.16285866 -31.70530128 278.15609169 C-31.71722284 284.9618139 -31.71861141 291.76743951 -31.70651112 298.57316307 C-31.70062749 302.0436642 -31.69950849 305.51398869 -31.71151352 308.984478 C-31.72196099 312.75154459 -31.71389551 316.51813722 -31.70120239 320.28518677 C-31.70857668 321.37547159 -31.71595096 322.4657564 -31.72354871 323.58908015 C-31.65994861 332.56829565 -30.15671593 339.67649933 -24.31526184 346.65522766 C-17.52145191 352.1409956 -11.53489225 352.84179644 -3.09260559 352.76863098 C-1.98068848 352.77487094 -0.86877136 352.78111091 0.27684021 352.78753996 C3.99245073 352.80345962 7.70740433 352.79086899 11.42301941 352.77827454 C14.09100755 352.7836961 16.75895086 352.79067455 19.42692566 352.79951477 C25.91501455 352.81727419 32.40291803 352.81347159 38.8910141 352.80186421 C44.16536985 352.79281997 49.43967375 352.79161016 54.71403503 352.79595947 C55.46553959 352.7965724 56.21704414 352.79718534 56.99132156 352.79781684 C58.51812746 352.79909578 60.04493333 352.80039264 61.5717392 352.80170721 C75.87884689 352.81310545 90.18585195 352.80001119 104.49294281 352.77850574 C116.76135306 352.76063542 129.02961189 352.76373975 141.29801941 352.78218079 C155.55494173 352.80360088 169.81177417 352.81200689 184.06871033 352.79973173 C185.58980813 352.79845757 187.11090595 352.79720009 188.63200378 352.79595947 C189.38035618 352.79534237 190.12870857 352.79472527 190.89973831 352.79408947 C196.16598422 352.79063998 201.43217298 352.79645624 206.69841003 352.80587769 C213.11877837 352.81711173 219.53895116 352.81402825 225.95929718 352.79275471 C229.23330264 352.78226293 232.50691616 352.78025371 235.78092957 352.79135132 C239.33382589 352.8022838 242.88580641 352.78856914 246.43864441 352.76863098 C247.46822266 352.77755387 248.4978009 352.78647676 249.55857849 352.79567003 C256.81525476 352.71669662 261.89239965 351.31341688 267.66130066 346.65522766 C274.34169711 338.67422305 275.11664536 330.43549388 275.06069946 320.30537415 C275.066085 319.12797133 275.07147054 317.95056852 275.07701927 316.73748684 C275.08879952 313.49143348 275.08725176 310.24571214 275.07985246 306.9996562 C275.07510543 303.49038312 275.08764406 299.98116409 275.09786987 296.47190857 C275.1150324 289.60599258 275.11590331 282.74016821 275.11065697 275.87423635 C275.1066098 270.29242479 275.10806531 264.71064023 275.11340523 259.12882996 C275.11415365 258.33334383 275.11490207 257.53785771 275.11567317 256.71826595 C275.1172047 255.10207533 275.11874305 253.48588472 275.12028814 251.86969411 C275.13400361 236.72705734 275.12858188 221.5844723 275.11710293 206.44183671 C275.10716837 192.5971379 275.12011675 178.7525727 275.14403712 164.90789449 C275.16843452 150.67956607 275.17803461 136.45129986 275.17138439 122.22295094 C275.16789401 114.2397962 275.17011248 106.25674424 275.18763542 98.27360535 C275.20236529 91.47890742 275.20298249 84.68438468 275.18556451 77.88969016 C275.17705909 74.42519705 275.1748934 70.96101677 275.19021606 67.49654007 C275.20339877 63.73607109 275.19190081 59.97645114 275.17422485 56.21601868 C275.18382986 55.12778022 275.19343487 54.03954176 275.20333093 52.91832638 C275.1191305 44.20522855 272.98856704 36.57624404 266.67301941 30.26069641 C261.59258215 26.75079245 257.13678459 25.14131274 251.00768852 25.12368202 C249.5994426 25.11607021 249.5994426 25.11607021 248.16274726 25.10830462 C247.13455474 25.10780686 246.10636221 25.10730911 245.04701233 25.10679626 C243.9521747 25.10241401 242.85733708 25.09803176 241.72932255 25.09351671 C238.04762994 25.08012422 234.36596126 25.07394881 230.68424988 25.06782532 C228.04967061 25.05992472 225.4150944 25.05166077 222.78051758 25.04304504 C214.86513178 25.01854001 206.94973973 25.0038968 199.03432769 24.99098498 C196.79790865 24.9872717 194.56149023 24.98329858 192.32507181 24.97923231 C178.43101463 24.95399475 164.53695643 24.9319462 150.64288139 24.91950417 C147.42571382 24.91657457 144.20854628 24.91361289 140.99137878 24.91059875 C139.79199339 24.90947968 139.79199339 24.90947968 138.56837799 24.908338 C125.61963497 24.89568821 112.67102938 24.86246902 99.72235058 24.82079692 C86.4219288 24.77834443 73.12157731 24.75480533 59.82108796 24.7495836 C52.3558855 24.74617327 44.89089784 24.73446288 37.42576218 24.70148087 C31.06720971 24.67343355 24.70891607 24.66250142 18.35030656 24.67367633 C15.10837708 24.67885118 11.8671009 24.67330791 8.62522697 24.65121078 C5.10334442 24.62851483 1.58281842 24.63681813 -1.93907166 24.6526947 C-2.95387985 24.63881261 -3.96868805 24.62493053 -5.01424801 24.61062777 C-13.80230752 24.70796572 -21.17924482 27.21849681 -26.82698059 34.19819641 Z " fill="#0B0F33" transform="translate(134.3269805908203,67.73930358886719)"/>
<path d="M0 0 C0.47651705 0.35372759 0.9530341 0.70745519 1.44399107 1.0719018 C6.66678218 4.67817612 10.4207661 5.72357727 16.70425415 5.62145996 C17.54398439 5.62784878 18.38371463 5.6342376 19.24889123 5.64082003 C22.04353842 5.65599769 24.83675138 5.63565746 27.63134766 5.61523438 C29.64247607 5.61873769 31.65360171 5.62439864 33.66471863 5.63204956 C39.11300592 5.64627495 44.56078717 5.62925885 50.00902605 5.60576439 C55.71437914 5.58563352 61.41971168 5.59153602 67.12509155 5.59387207 C76.70327078 5.59381853 86.28125252 5.57407919 95.859375 5.54199219 C106.93167259 5.50507989 118.00371171 5.49631991 129.0760628 5.5032897 C139.73238846 5.50959484 150.38862554 5.49884151 161.04493332 5.47932434 C165.57829424 5.47115155 170.11160989 5.46844057 174.64497757 5.47001648 C179.9818902 5.47089544 185.31855721 5.45667584 190.65540504 5.43078995 C192.61374915 5.42362872 194.57211939 5.42154431 196.53047371 5.42490768 C199.20381988 5.42862326 201.87644957 5.41387239 204.54971313 5.39440918 C205.71177873 5.40240107 205.71177873 5.40240107 206.89732039 5.41055441 C211.71251652 5.3500788 214.82112848 4.31834069 219 2 C219.99 2 220.98 2 222 2 C227.47794117 12.45584134 232.93717879 22.92101116 238.3359375 33.41796875 C238.7062056 34.13776413 239.07647369 34.85755951 239.45796204 35.59916687 C241.28957471 39.16074781 243.11939648 42.72323648 244.94702148 46.28686523 C245.63763609 47.63146169 246.32846899 48.97594606 247.01953125 50.3203125 C247.35188278 50.96748734 247.68423431 51.61466217 248.0266571 52.28144836 C249.67413376 55.47681406 251.34605447 58.65552166 253.06787109 61.81152344 C253.55896614 62.71195877 253.55896614 62.71195877 254.0599823 63.63058472 C254.95436585 65.26253752 255.85525882 66.89091806 256.7565918 68.51904297 C258 71 258 71 258 73 C258.66 73 259.32 73 260 73 C261.485 68.545 261.485 68.545 263 64 C263.33 64 263.66 64 264 64 C264.08816905 67.64567713 264.14077948 71.29107474 264.1875 74.9375 C264.22520508 76.46987305 264.22520508 76.46987305 264.26367188 78.03320312 C264.35130687 87.17645441 262.93541599 94.28954726 256.98828125 101.39453125 C250.19447132 106.88029919 244.20791166 107.58110003 235.765625 107.50793457 C234.65370789 107.51417453 233.54179077 107.5204145 232.3961792 107.52684355 C228.68056868 107.5427632 224.96561508 107.53017258 221.25 107.51757812 C218.58201185 107.52299969 215.91406855 107.52997814 213.24609375 107.53881836 C206.75800486 107.55657778 200.27010137 107.55277518 193.78200531 107.5411678 C188.50764956 107.53212356 183.23334566 107.53091375 177.95898438 107.53526306 C177.20747982 107.53587599 176.45597527 107.53648893 175.68169785 107.53712043 C174.15489195 107.53839937 172.62808607 107.53969622 171.10128021 107.5410108 C156.79417252 107.55240904 142.48716746 107.53931478 128.1800766 107.51780933 C115.91166635 107.49993901 103.64340751 107.50304333 91.375 107.52148438 C77.11807768 107.54290447 62.86124524 107.55131047 48.60430908 107.53903532 C47.08321128 107.53776116 45.56211346 107.53650368 44.04101562 107.53526306 C43.29266323 107.53464596 42.54431084 107.53402886 41.7732811 107.53339306 C36.50703519 107.52994357 31.24084643 107.53575983 25.97460938 107.54518127 C19.55424104 107.55641532 13.13406825 107.55333184 6.71372223 107.5320583 C3.43971677 107.52156652 0.16610325 107.5195573 -3.10791016 107.53065491 C-6.66080648 107.54158739 -10.212787 107.52787273 -13.765625 107.50793457 C-15.30999237 107.5213189 -15.30999237 107.5213189 -16.88555908 107.53497362 C-24.14223535 107.45600021 -29.21938024 106.05272047 -34.98828125 101.39453125 C-41.72751793 93.34323079 -42.43906754 85.1614629 -42.1875 74.9375 C-42.17396484 73.88111328 -42.16042969 72.82472656 -42.14648438 71.73632812 C-42.1114709 69.15700191 -42.06236675 66.57878506 -42 64 C-40 67 -40 67 -39 69.125 C-38.14139842 71.17044538 -38.14139842 71.17044538 -36 72 C-35.76152344 71.19328857 -35.52304688 70.38657715 -35.27734375 69.55541992 C-33.71339071 65.20223793 -31.68741944 61.21527448 -29.5625 57.11328125 C-29.12292969 56.25679489 -28.68335937 55.40030853 -28.23046875 54.51786804 C-26.8242859 51.78068061 -25.4121401 49.04661788 -24 46.3125 C-23.08166126 44.52558072 -22.16368934 42.73847288 -21.24609375 40.95117188 C-16.30453787 31.33852793 -11.31438035 21.75251366 -6.25976562 12.19880676 C-4.12289224 8.15623583 -2.02612653 4.09974041 0 0 Z " fill="#86C1D5" transform="translate(145,313)"/>
<path d="M0 0 C0.88168854 -0.01265396 1.76337708 -0.02530792 2.67178345 -0.03834534 C4.10342079 -0.02080704 4.10342079 -0.02080704 5.5639801 -0.00291443 C6.57919739 -0.01006973 7.59441467 -0.01722504 8.64039612 -0.02459717 C11.99371955 -0.04149487 15.34570805 -0.02207277 18.69898987 -0.00071716 C21.03159699 -0.00154582 23.36420406 -0.00400508 25.69680786 -0.00802612 C30.5851652 -0.01088496 35.47306459 0.0038251 40.36134338 0.03126526 C46.62391212 0.06532859 52.88566086 0.05933653 59.1482687 0.04060268 C63.96532001 0.03002749 68.78218094 0.03897571 73.59921455 0.0539875 C75.90806068 0.05916718 78.2169267 0.05869013 80.52577019 0.05244255 C83.75508647 0.04698508 86.98323446 0.06738481 90.2124176 0.09474182 C91.16481827 0.08821594 92.11721893 0.08169006 93.09848022 0.07496643 C98.83511878 0.15749319 102.06494934 0.83945675 106.45289612 4.62818909 C108.83526236 9.39292157 107.76515072 16.58877507 107.80299377 21.88526917 C107.81954436 23.58365083 107.84682296 25.2819631 107.88502502 26.97999573 C107.9398927 29.43210372 107.96168125 31.88258056 107.97633362 34.33522034 C107.99900299 35.09059586 108.02167236 35.84597137 108.04502869 36.62423706 C108.0288845 40.6682428 107.63307907 42.40698903 105.04518127 45.58399963 C101.32378076 48.51857173 99.58081051 48.75184258 94.90162659 48.74171448 C93.74057404 48.74163895 92.57952148 48.74156342 91.38328552 48.7414856 C90.12492889 48.73632431 88.86657227 48.73116302 87.57008362 48.72584534 C86.28554291 48.72443039 85.0010022 48.72301544 83.67753601 48.72155762 C80.2613277 48.7177382 76.84516186 48.70791282 73.42897034 48.69685364 C69.94346186 48.68662716 66.45794652 48.68205734 62.97242737 48.67701721 C56.13256441 48.66629004 49.29273667 48.64869788 42.45289612 48.62818909 C42.45289612 55.88818909 42.45289612 63.14818909 42.45289612 70.62818909 C47.67166565 70.54117737 47.67166565 70.54117737 52.99586487 70.45240784 C56.3683189 70.4134058 59.74074773 70.38305043 63.11329651 70.35353088 C65.45585896 70.32839783 67.79834307 70.29428601 70.14064026 70.25099182 C73.5092451 70.1902898 76.87681261 70.16196657 80.24586487 70.13990784 C81.81487801 70.1011982 81.81487801 70.1011982 83.41558838 70.06170654 C88.07040021 70.05991392 90.66187698 70.10591363 94.61402893 72.71534729 C96.88343968 76.31018792 97.08427868 78.48469317 97.08180237 82.72193909 C97.08421432 83.39108337 97.08662628 84.06022766 97.08911133 84.74964905 C97.08813591 86.15827893 97.0748146 87.5669486 97.04981995 88.97535706 C97.01548409 91.12268716 97.02917538 93.26590158 97.04859924 95.41334534 C97.04170023 96.78706064 97.03202731 98.1607654 97.01930237 99.53443909 C97.0084259 100.77516174 96.99754944 102.0158844 96.98634338 103.29420471 C96.36345573 107.18718128 95.1938081 108.84852838 92.45289612 111.62818909 C90.03515031 112.83706199 88.51958548 112.74878251 85.81959534 112.74171448 C84.85875031 112.74163895 83.89790527 112.74156342 82.90794373 112.7414856 C81.86832489 112.73632431 80.82870605 112.73116302 79.75758362 112.72584534 C78.69500336 112.72443039 77.6324231 112.72301544 76.53764343 112.72155762 C73.13436603 112.71594742 69.73115373 112.70339318 66.32789612 112.69068909 C64.02451165 112.6856754 61.72112615 112.68111227 59.41773987 112.67701721 C53.76276963 112.66597468 48.10783752 112.6492266 42.45289612 112.62818909 C42.4695507 113.49809479 42.4695507 113.49809479 42.48654175 114.38557434 C42.59713294 120.41990258 42.67256192 126.45394318 42.72755432 132.48902893 C42.75270355 134.74142651 42.78682729 136.99374245 42.83009338 139.24586487 C42.89072512 142.48288609 42.91910203 145.71882881 42.94117737 148.95631409 C42.9669838 149.96373657 42.99279022 150.97115906 43.01937866 152.0091095 C43.02212444 158.84835787 43.02212444 158.84835787 40.53199768 162.25978088 C36.19963861 164.1851593 32.39501357 164.22041135 27.69898987 164.19459534 C26.76112137 164.20079391 25.82325287 164.20699249 24.85696411 164.21337891 C22.87926774 164.22046705 20.90151158 164.21732064 18.92384338 164.2046051 C15.89660743 164.19071758 12.87245029 164.22485016 9.84547424 164.26295471 C7.92164536 164.26390574 5.99781261 164.26204797 4.07398987 164.25709534 C3.16974777 164.27035355 2.26550568 164.28361176 1.3338623 164.29727173 C0.48941055 164.28473862 -0.3550412 164.27220551 -1.2250824 164.2592926 C-1.96500931 164.25833084 -2.70493622 164.25736908 -3.46728516 164.25637817 C-6.68154426 163.28554237 -7.71669823 161.37954965 -9.54710388 158.62818909 C-10.05326176 155.6374588 -10.05326176 155.6374588 -10.06176758 152.25209045 C-10.07449203 150.96507736 -10.08721649 149.67806427 -10.10032654 148.35205078 C-10.09414463 146.93302733 -10.08753864 145.51400568 -10.08055115 144.09498596 C-10.0876113 142.59498242 -10.09635673 141.094986 -10.10665894 139.59500122 C-10.12915082 135.52679265 -10.12621402 131.45897315 -10.11733747 127.39072609 C-10.11222603 123.99347593 -10.11952129 120.59629879 -10.12680954 117.19905615 C-10.14380749 109.18497168 -10.14024332 101.17107764 -10.1235199 93.15699768 C-10.1065921 84.89015187 -10.12244213 76.62383383 -10.15474278 68.35704565 C-10.1814329 61.25709803 -10.18871647 54.15731477 -10.1802277 47.05732203 C-10.17529754 42.81775859 -10.17751886 38.57851284 -10.19801521 34.33898926 C-10.21636393 30.35295307 -10.21042445 26.36767673 -10.18581581 22.38168144 C-10.18080553 20.91957924 -10.1843035 19.45741921 -10.19696426 17.99536324 C-10.21288826 15.99838849 -10.19492697 14.00122944 -10.17529297 12.00428772 C-10.17470666 10.88711617 -10.17412035 9.76994461 -10.17351627 8.61891937 C-9.04383224 3.22537946 -5.53932726 0.00426269 0 0 Z " fill="#3E6685" transform="translate(210.54710388183594,123.37181091308594)"/>
<path d="M0 0 C4.26835703 -0.07474224 8.53635674 -0.12887823 12.80517578 -0.16479492 C14.25413661 -0.17978417 15.70305283 -0.20018271 17.15185547 -0.22631836 C26.64093789 -0.39308032 34.08376591 -0.30900372 42.25 5.1875 C47.15052371 10.19939925 50.1184068 16.41806229 50.13422108 23.48260689 C50.13867892 24.40612957 50.14313676 25.32965225 50.14772969 26.28116047 C50.14754533 27.29738417 50.14736097 28.31360787 50.14717102 29.36062622 C50.15084771 30.43898078 50.1545244 31.51733534 50.1583125 32.6283673 C50.16937043 36.26022488 50.17319677 39.89205387 50.17700195 43.52392578 C50.18326503 46.1205708 50.18991169 48.71721491 50.19691467 51.31385803 C50.21667757 59.11990779 50.2267456 66.92595883 50.23564246 74.73202735 C50.24002612 78.40882471 50.24539277 82.08562062 50.25063133 85.76241684 C50.26764433 97.98667921 50.28213782 110.21094069 50.28938007 122.43521309 C50.29128995 125.60752488 50.29321028 128.77983667 50.29516602 131.95214844 C50.29564976 132.74060405 50.2961335 133.52905967 50.2966319 134.34140788 C50.30492966 147.10980498 50.33026193 159.87810831 50.36274669 172.64646448 C50.39583264 185.75813869 50.41383027 198.86976527 50.41702431 211.98148143 C50.41918812 219.34211533 50.42791758 226.70261254 50.45348549 234.06320572 C50.47748773 240.98905216 50.48100849 247.91464904 50.47072411 254.84052849 C50.47022807 257.38137441 50.47656826 259.92223234 50.49028015 262.46304131 C50.50796641 265.93481321 50.50090785 269.40569941 50.48774719 272.87747192 C50.49871644 273.88031129 50.50968568 274.88315066 50.52098733 275.91637909 C50.46133527 282.44523095 49.12039941 287.26110308 46 293 C45.34 293 44.68 293 44 293 C43.56357178 292.15219971 43.12714355 291.30439941 42.67749023 290.4309082 C38.2410143 281.81329582 33.80210315 273.19694075 29.36132812 264.58154297 C27.83609728 261.62248586 26.31135813 258.66317639 24.78710938 255.70361328 C23.07634561 252.38216714 21.36398593 249.06154852 19.65042114 245.74154663 C19.01420083 244.50828377 18.37850976 243.27474773 17.74337769 242.04092407 C13.80350465 234.35388214 13.80350465 234.35388214 9.58203125 226.8203125 C8 224 8 224 8 222 C7.34 221.67 6.68 221.34 6 221 C6.4870041 220.18456474 6.9740082 219.36912949 7.47577 218.52898407 C9.2513726 214.41800785 9.42169122 210.92810201 9.38768005 206.53625488 C9.39306559 205.69823349 9.39845113 204.86021211 9.40399987 203.99679613 C9.41827669 201.19628125 9.41117645 198.39623922 9.40405273 195.59570312 C9.40975639 193.58487061 9.41672063 191.57404133 9.42485046 189.56321716 C9.44279608 184.10668537 9.44161098 178.65031427 9.43590808 173.19376183 C9.43281869 168.63840783 9.43890581 164.08308482 9.44494683 159.52773523 C9.45899466 148.7822986 9.4574282 138.03694147 9.44604492 127.29150391 C9.43455934 116.2044562 9.44864628 105.11765026 9.4754414 94.0306344 C9.49758701 84.51116052 9.50423845 74.99176259 9.49836498 65.47226477 C9.49499199 59.78683526 9.4974335 54.10156081 9.51461601 48.41615295 C9.53006516 43.0710382 9.526152 37.72628219 9.50731087 32.38118172 C9.50361958 30.41960278 9.50674912 28.45799738 9.51719666 26.49644279 C9.53037112 23.81846177 9.51889082 21.14167465 9.50120544 18.46374512 C9.51081045 17.68767048 9.52041546 16.91159585 9.53031152 16.1120038 C9.45980246 10.92246153 8.26918551 8.00059824 5 4 C2.3908613 1.67722584 2.3908613 1.67722584 0 0 Z " fill="#BCE1EA" transform="translate(359,93)"/>
<path d="M0 0 C1.49605615 0.02513426 2.99215334 0.04793832 4.48828125 0.06835938 C8.1180543 0.12290325 11.74625701 0.20888539 15.375 0.3125 C14.6325 0.84875 13.89 1.385 13.125 1.9375 C8.87788829 5.60546011 6.5949476 8.57781449 5.87722206 14.23838139 C5.85795128 15.75312349 5.86046304 17.26824239 5.88052368 18.78297424 C5.87569485 19.6217012 5.87086602 20.46042815 5.86589086 21.32457107 C5.8546429 24.12758882 5.87192144 26.92968961 5.88916016 29.73266602 C5.88701373 31.7451197 5.88313521 33.75757217 5.87765503 35.77001953 C5.86796499 41.23069184 5.88326052 46.69103699 5.90356112 52.15166974 C5.92113296 57.86550856 5.91760702 63.5793373 5.9168396 69.29319763 C5.91871236 78.88749667 5.93607364 88.48166915 5.96337891 98.07592773 C5.99483834 109.17088905 6.00537476 120.2657118 6.0039078 131.3607145 C6.00268738 142.03197374 6.01289644 152.70318784 6.02949142 163.37443352 C6.03655513 167.91698496 6.04021764 172.45952043 6.04127884 177.0020771 C6.043287 182.34957835 6.0554909 187.69696315 6.07561111 193.04442596 C6.08145552 195.00803095 6.08391298 196.97164934 6.08275604 198.93526268 C6.08177522 201.61330228 6.09307999 204.29101529 6.10757446 206.9690094 C6.10447726 207.74799687 6.10138005 208.52698435 6.098189 209.32957751 C6.1353279 213.47805017 6.71173098 216.5327019 8.375 220.3125 C7.65917969 222.78173828 7.65917969 222.78173828 6.296875 225.3828125 C5.80082764 226.35114014 5.30478027 227.31946777 4.79370117 228.31713867 C4.24302979 229.34685791 3.6923584 230.37657715 3.125 231.4375 C2.56723877 232.51427002 2.00947754 233.59104004 1.43481445 234.70043945 C-0.23460334 237.91382471 -1.9271342 241.11407548 -3.625 244.3125 C-4.46080297 245.9069406 -5.29556285 247.50192876 -6.12890625 249.09765625 C-7.68490308 252.07000916 -9.25162019 255.03640132 -10.82421875 258 C-14.5149349 264.9745817 -18.12823937 271.98945127 -21.75 279 C-22.09213531 279.66212494 -22.43427063 280.32424988 -22.78677368 281.00643921 C-24.73377009 284.774651 -26.67981083 288.54335489 -28.625 292.3125 C-31.625 291.3125 -31.625 291.3125 -33.28827 288.42760277 C-35.19128742 283.52881403 -35.04374376 278.66312001 -35.01268005 273.47085571 C-35.01806559 272.38908346 -35.02345113 271.3073112 -35.02899987 270.19275796 C-35.04329057 266.57321332 -35.03617273 262.95403381 -35.02905273 259.33447266 C-35.03475572 256.73723558 -35.04171969 254.140001 -35.04985046 251.54277039 C-35.06702752 245.22335357 -35.06788071 238.90403623 -35.06263756 232.58460213 C-35.05859233 227.44658257 -35.06004361 222.30859235 -35.06538582 217.17057419 C-35.06613424 216.4386504 -35.06688266 215.7067266 -35.06765376 214.9526233 C-35.06918528 213.46560061 -35.07072363 211.97857793 -35.07226873 210.49155526 C-35.08598999 196.55308065 -35.08055888 182.6146622 -35.06908352 168.67618887 C-35.0591531 155.93390119 -35.07208913 143.19175876 -35.09601771 130.44949348 C-35.12042044 117.35575962 -35.13001361 104.26209337 -35.12336498 91.16833723 C-35.11987516 83.82119293 -35.12208903 76.4741603 -35.13961601 69.12703323 C-35.15589496 62.21752505 -35.15113804 55.30829848 -35.13231087 48.39879799 C-35.12862275 45.86440776 -35.13173988 43.32999702 -35.14219666 40.79562569 C-35.15539222 37.33280113 -35.14387027 33.87089671 -35.12620544 30.40811157 C-35.13581045 29.40800068 -35.14541546 28.4078898 -35.15531152 27.37747252 C-35.07427605 19.6432285 -32.89570012 14.15522327 -29 7.5625 C-20.50657692 -0.48390081 -10.98253467 -0.32315919 0 0 Z " fill="#BCE1EA" transform="translate(137.625,92.6875)"/>
<path d="M0 0 C1.07378227 1.6106734 2.13554812 3.23162083 3.11328125 4.90234375 C7.02455162 11.54003711 11.44379477 15.75623788 19 18 C22.65204608 18.42715084 26.2750162 18.4136829 29.94880676 18.39440918 C31.04212411 18.40050028 32.13544146 18.40659139 33.26188964 18.41286707 C36.92054869 18.42949827 40.57885976 18.42472091 44.23754883 18.41992188 C46.86272035 18.42726214 49.48788865 18.43584824 52.11305237 18.44558716 C58.50097728 18.46661606 64.88881138 18.47118345 71.27676681 18.46939927 C76.47103351 18.46809027 81.66527193 18.47190281 86.85953331 18.47932434 C88.35727157 18.4814236 89.85500983 18.4835212 91.3527481 18.48561716 C92.09828264 18.48666069 92.84381718 18.48770422 93.61194368 18.48877937 C107.70448078 18.50767176 121.79696579 18.50663472 135.8895103 18.49981004 C148.77017868 18.49423627 161.65064806 18.51505465 174.53126995 18.54817051 C187.76852223 18.58193812 201.00567927 18.59707196 214.24297541 18.59245348 C221.67010684 18.59021176 229.09705439 18.59540809 236.52414894 18.62034607 C243.51003359 18.64360349 250.49549795 18.64073913 257.48139 18.62041855 C260.04277747 18.61700753 262.60419278 18.62210139 265.1655426 18.63640213 C268.66759091 18.65460311 272.1682359 18.64183678 275.67024231 18.62145996 C276.6791132 18.63397781 277.68798409 18.64649566 278.72742683 18.65939283 C286.28213954 18.56542819 292.81522877 16.63615653 298.61956149 11.59275961 C301.72344841 8.13602788 303.37386541 4.27930156 305 0 C305.33 0 305.66 0 306 0 C306.08816905 3.64567713 306.14077948 7.29107474 306.1875 10.9375 C306.22520508 12.46987305 306.22520508 12.46987305 306.26367188 14.03320312 C306.35130687 23.17645441 304.93541599 30.28954726 298.98828125 37.39453125 C292.19447132 42.88029919 286.20791166 43.58110003 277.765625 43.50793457 C276.65370789 43.51417453 275.54179077 43.5204145 274.3961792 43.52684355 C270.68056868 43.5427632 266.96561508 43.53017258 263.25 43.51757812 C260.58201185 43.52299969 257.91406855 43.52997814 255.24609375 43.53881836 C248.75800486 43.55657778 242.27010137 43.55277518 235.78200531 43.5411678 C230.50764956 43.53212356 225.23334566 43.53091375 219.95898438 43.53526306 C219.20747982 43.53587599 218.45597527 43.53648893 217.68169785 43.53712043 C216.15489195 43.53839937 214.62808607 43.53969622 213.10128021 43.5410108 C198.79417252 43.55240904 184.48716746 43.53931478 170.1800766 43.51780933 C157.91166635 43.49993901 145.64340751 43.50304333 133.375 43.52148438 C119.11807768 43.54290447 104.86124524 43.55131047 90.60430908 43.53903532 C89.08321128 43.53776116 87.56211346 43.53650368 86.04101562 43.53526306 C85.29266323 43.53464596 84.54431084 43.53402886 83.7732811 43.53339306 C78.50703519 43.52994357 73.24084643 43.53575983 67.97460938 43.54518127 C61.55424104 43.55641532 55.13406825 43.55333184 48.71372223 43.5320583 C45.43971677 43.52156652 42.16610325 43.5195573 38.89208984 43.53065491 C35.33919352 43.54158739 31.787213 43.52787273 28.234375 43.50793457 C26.69000763 43.5213189 26.69000763 43.5213189 25.11444092 43.53497362 C17.85776465 43.45600021 12.78061976 42.05272047 7.01171875 37.39453125 C0.27248207 29.34323079 -0.43906754 21.1614629 -0.1875 10.9375 C-0.17396484 9.88111328 -0.16042969 8.82472656 -0.14648438 7.73632812 C-0.1114709 5.15700191 -0.06236675 2.57878506 0 0 Z " fill="#4CA1BE" transform="translate(103,377)"/>
</svg>
